<?xml version="1.0" encoding="utf-8"?>
<!-- Generator: Adobe Illustrator 22.1.0, SVG Export Plug-In . SVG Version: 6.00 Build 0)  -->
<svg version="1.1" id="Layer_1" xmlns="http://www.w3.org/2000/svg" xmlns:xlink="http://www.w3.org/1999/xlink" x="0px" y="0px"
	 viewBox="0 0 100 100" style="enable-background:new 0 0 100 100;" xml:space="preserve">
<path d="M16.7,22.2v66.7c0,6.1,5,11.1,11.1,11.1h44.4c6.1,0,11.1-5,11.1-11.1V22.2H16.7z M69.6,72.9l-7.9,7.9L50,69L38.2,80.8
	l-7.9-7.9l11.8-11.8L30.4,49.3l7.9-7.9L50,53.3l11.8-11.8l7.9,7.9L57.9,61.1L69.6,72.9z"/>
<polygon points="69.4,5.6 63.9,0 36.1,0 30.6,5.6 11.1,5.6 11.1,16.7 88.9,16.7 88.9,5.6 "/>
</svg>
